<svg width="297" height="98" viewBox="0 0 297 98" fill="none" xmlns="http://www.w3.org/2000/svg">
<path d="M47.3191 23.7816H31.5464V88.6009H47.3191V23.7816Z" fill="#1A1A1A"/>
<path d="M105.258 23.8597V89.0009H89.4072V23.8597H47.2578V8.00085H89.4072L105.258 23.8597Z" fill="#1A1A1A"/>
<path d="M121 73.1419V24.0007H136.851V73.1419H179V89.0007H136.851L121 73.1419Z" fill="#1A1A1A"/>
<path d="M194.711 8.00085V73.0009H178.861V23.8597H136.711V8.00085H178.861H194.711Z" fill="#1A1A1A"/>
<path d="M15.7728 39.8037H0V88.6006H15.7728V39.8037Z" fill="#1A1A1A"/>
<path d="M225.465 7.99823L209.301 7.99826L263 89.4999L279 89.5L225.465 7.99823Z" fill="#1A1A1A"/>
<path d="M262.906 7.99823L279.07 7.99826L225.371 89.4999L209.371 89.5L262.906 7.99823Z" fill="#1A1A1A"/>
<path d="M15.7728 8.00085V39.8038L0 24.0242V8.00085H15.7728Z" fill="#1A1A1A"/>
</svg>
