<svg viewBox="0 0 167 168" xmlns="http://www.w3.org/2000/svg">
<path d="M67.3465 104.584V147.304H61.3236L39.2466 115.973H38.8436V147.304H32.2905V104.584H38.3559L60.4541 135.957H60.857V104.584H67.3465Z" />
<path d="M21.5531 104.584V147.304H15V104.584H21.5531Z" />
<path d="M121.131 104.585L130.826 121.336H131.143L140.838 104.585H147.921L135.298 126L148 147.414H140.877L131.143 130.893H130.826L121.092 147.414H113.969L126.889 126L114.048 104.585H121.131Z" />
<path d="M109.331 126C109.331 130.573 108.54 134.504 106.957 137.795C105.374 141.071 103.205 143.594 100.448 145.365C97.7042 147.122 94.5847 148 91.0892 148C87.5806 148 84.4479 147.122 81.6911 145.365C78.9475 143.594 76.7843 141.064 75.2014 137.774C73.6186 134.484 72.8271 130.559 72.8271 126C72.8271 121.427 73.6186 117.503 75.2014 114.226C76.7843 110.936 78.9475 108.413 81.6911 106.656C84.4479 104.885 87.5806 104 91.0892 104C94.5847 104 97.7042 104.885 100.448 106.656C103.205 108.413 105.374 110.936 106.957 114.226C108.54 117.503 109.331 121.427 109.331 126ZM103.277 126C103.277 122.515 102.743 119.58 101.674 117.196C100.619 114.798 99.1683 112.985 97.3217 111.759C95.4882 110.518 93.4107 109.897 91.0892 109.897C88.7545 109.897 86.6704 110.518 84.837 111.759C83.0035 112.985 81.5526 114.798 80.4842 117.196C79.4289 119.58 78.9013 122.515 78.9013 126C78.9013 129.485 79.4289 132.427 80.4842 134.825C81.5526 137.209 83.0035 139.022 84.837 140.262C86.6704 141.489 88.7545 142.103 91.0892 142.103C93.4107 142.103 95.4882 141.489 97.3217 140.262C99.1683 139.022 100.619 137.209 101.674 134.825C102.743 132.427 103.277 129.485 103.277 126Z" />
</svg>
