<svg viewBox="0 0 426 426" xmlns="http://www.w3.org/2000/svg">
<path d="M199.497 224.183L235.04 286.618H236.2L271.742 224.183H297.71L251.433 304L298 383.818H271.888L236.2 322.24H235.04L199.352 383.818H173.24L220.605 304L173.53 224.183H199.497Z" />
<path d="M155.861 304C155.861 321.044 152.96 335.698 147.157 347.962C141.354 360.174 133.399 369.579 123.293 376.179C113.235 382.726 101.798 386 88.9835 386C76.1206 386 64.6359 382.726 54.5293 376.179C44.471 369.579 36.5405 360.148 30.7377 347.884C24.9349 335.62 22.0334 320.992 22.0334 304C22.0334 286.956 24.9349 272.328 30.7377 260.116C36.5405 247.852 44.471 238.447 54.5293 231.899C64.6359 225.3 76.1206 222 88.9835 222C101.798 222 113.235 225.3 123.293 231.899C133.399 238.447 141.354 247.852 147.157 260.116C152.96 272.328 155.861 286.956 155.861 304ZM133.665 304C133.665 291.009 131.707 280.07 127.79 271.184C123.921 262.247 118.602 255.491 111.832 250.918C105.111 246.293 97.4944 243.981 88.9835 243.981C80.4244 243.981 72.784 246.293 66.0624 250.918C59.3408 255.491 54.0215 262.247 50.1046 271.184C46.2361 280.07 44.3018 291.009 44.3018 304C44.3018 316.991 46.2361 327.956 50.1046 336.894C54.0215 345.779 59.3408 352.535 66.0624 357.16C72.784 361.733 80.4244 364.019 88.9835 364.019C97.4944 364.019 105.111 361.733 111.832 357.16C118.602 352.535 123.921 345.779 127.79 336.894C131.707 327.956 133.665 316.991 133.665 304Z" />
</svg>
